<svg width="1728" height="46" viewBox="0 0 1728 46" fill="none" xmlns="http://www.w3.org/2000/svg">
<g clip-path="url(#clip0_58_568)">
<rect width="1728" height="46" fill="black"/>
<path d="M10.3068 18.2727H11.517L13.9375 22.3466H14.0398L16.4602 18.2727H17.6705L14.517 23.4034V27H13.4602V23.4034L10.3068 18.2727ZM27.4908 22.6364C27.4908 23.5568 27.3246 24.3523 26.9922 25.0227C26.6598 25.6932 26.2038 26.2102 25.6243 26.5739C25.0447 26.9375 24.3828 27.1193 23.6385 27.1193C22.8942 27.1193 22.2322 26.9375 21.6527 26.5739C21.0732 26.2102 20.6172 25.6932 20.2848 25.0227C19.9524 24.3523 19.7862 23.5568 19.7862 22.6364C19.7862 21.7159 19.9524 20.9205 20.2848 20.25C20.6172 19.5795 21.0732 19.0625 21.6527 18.6989C22.2322 18.3352 22.8942 18.1534 23.6385 18.1534C24.3828 18.1534 25.0447 18.3352 25.6243 18.6989C26.2038 19.0625 26.6598 19.5795 26.9922 20.25C27.3246 20.9205 27.4908 21.7159 27.4908 22.6364ZM26.468 22.6364C26.468 21.8807 26.3416 21.2429 26.0888 20.723C25.8388 20.2031 25.4993 19.8097 25.0703 19.5426C24.6442 19.2756 24.1669 19.142 23.6385 19.142C23.1101 19.142 22.6314 19.2756 22.2024 19.5426C21.7763 19.8097 21.4368 20.2031 21.1839 20.723C20.9339 21.2429 20.8089 21.8807 20.8089 22.6364C20.8089 23.392 20.9339 24.0298 21.1839 24.5497C21.4368 25.0696 21.7763 25.4631 22.2024 25.7301C22.6314 25.9972 23.1101 26.1307 23.6385 26.1307C24.1669 26.1307 24.6442 25.9972 25.0703 25.7301C25.4993 25.4631 25.8388 25.0696 26.0888 24.5497C26.3416 24.0298 26.468 23.392 26.468 22.6364ZM36.495 18.2727H37.5518V24.0511C37.5518 24.6477 37.4112 25.1804 37.13 25.6491C36.8516 26.1151 36.4581 26.483 35.9496 26.7528C35.4411 27.0199 34.8445 27.1534 34.1598 27.1534C33.4751 27.1534 32.8786 27.0199 32.37 26.7528C31.8615 26.483 31.4666 26.1151 31.1854 25.6491C30.907 25.1804 30.7678 24.6477 30.7678 24.0511V18.2727H31.8246V23.9659C31.8246 24.392 31.9183 24.7713 32.1058 25.1037C32.2933 25.4332 32.5604 25.6932 32.907 25.8835C33.2564 26.071 33.674 26.1648 34.1598 26.1648C34.6456 26.1648 35.0632 26.071 35.4126 25.8835C35.7621 25.6932 36.0291 25.4332 36.2138 25.1037C36.4013 24.7713 36.495 24.392 36.495 23.9659V18.2727ZM41.1623 27V18.2727H44.1112C44.793 18.2727 45.3526 18.3892 45.7901 18.6222C46.2276 18.8523 46.5515 19.169 46.7617 19.5724C46.9719 19.9759 47.0771 20.4347 47.0771 20.9489C47.0771 21.4631 46.9719 21.919 46.7617 22.3168C46.5515 22.7145 46.229 23.027 45.7944 23.2543C45.3597 23.4787 44.8043 23.5909 44.1282 23.5909H41.7418V22.6364H44.0941C44.56 22.6364 44.935 22.5682 45.2191 22.4318C45.506 22.2955 45.7134 22.1023 45.8413 21.8523C45.9719 21.5994 46.0373 21.2983 46.0373 20.9489C46.0373 20.5994 45.9719 20.294 45.8413 20.0327C45.7106 19.7713 45.5018 19.5696 45.2148 19.4276C44.9279 19.2827 44.5487 19.2102 44.0771 19.2102H42.2191V27H41.1623ZM45.2702 23.0795L47.418 27H46.1907L44.0771 23.0795H45.2702ZM54.7358 19.2102V18.2727H61.2812V19.2102H58.5369V27H57.4801V19.2102H54.7358ZM64.4123 27V18.2727H69.6793V19.2102H65.4691V22.1591H69.4066V23.0966H65.4691V26.0625H69.7475V27H64.4123ZM73.5955 18.2727L75.8455 21.9034H75.9137L78.1637 18.2727H79.408L76.6637 22.6364L79.408 27H78.1637L75.9137 23.4375H75.8455L73.5955 27H72.3512L75.1637 22.6364L72.3512 18.2727H73.5955ZM81.8061 19.2102V18.2727H88.3516V19.2102H85.6072V27H84.5504V19.2102H81.8061ZM96.3576 27V18.2727H97.4144V22.1591H102.068V18.2727H103.125V27H102.068V23.0966H97.4144V27H96.3576ZM106.74 27V18.2727H112.007V19.2102H107.797V22.1591H111.735V23.0966H107.797V26.0625H112.076V27H106.74ZM115.412 27V18.2727H118.361C119.043 18.2727 119.603 18.3892 120.04 18.6222C120.478 18.8523 120.801 19.169 121.012 19.5724C121.222 19.9759 121.327 20.4347 121.327 20.9489C121.327 21.4631 121.222 21.919 121.012 22.3168C120.801 22.7145 120.479 23.027 120.044 23.2543C119.61 23.4787 119.054 23.5909 118.378 23.5909H115.992V22.6364H118.344C118.81 22.6364 119.185 22.5682 119.469 22.4318C119.756 22.2955 119.963 22.1023 120.091 21.8523C120.222 21.5994 120.287 21.2983 120.287 20.9489C120.287 20.5994 120.222 20.294 120.091 20.0327C119.961 19.7713 119.752 19.5696 119.465 19.4276C119.178 19.2827 118.799 19.2102 118.327 19.2102H116.469V27H115.412ZM119.52 23.0795L121.668 27H120.441L118.327 23.0795H119.52ZM124.588 27V18.2727H129.855V19.2102H125.645V22.1591H129.582V23.0966H125.645V26.0625H129.923V27H124.588Z" fill="white"/>
<path d="M179.608 18.2135C179.617 18.0016 179.966 17.9169 180.07 18.1018C180.56 18.9687 181.392 20.242 182.336 20.8219C183.28 21.3998 184.794 21.5655 185.788 21.6079C186 21.6175 186.082 21.9662 185.898 22.0702C185.031 22.5595 183.759 23.3917 183.179 24.3356C182.6 25.2796 182.436 26.7937 182.393 27.7878C182.384 27.9997 182.033 28.0825 181.931 27.8976C181.442 27.0307 180.61 25.7593 179.664 25.1794C178.72 24.5996 177.206 24.4358 176.214 24.3934C176.002 24.3838 175.917 24.0332 176.102 23.9311C176.969 23.4418 178.242 22.6096 178.822 21.6637C179.4 20.7198 179.565 19.2056 179.608 18.2135Z" fill="white"/>
<path d="M247.307 18.2727H248.517L250.938 22.3466H251.04L253.46 18.2727H254.67L251.517 23.4034V27H250.46V23.4034L247.307 18.2727ZM264.491 22.6364C264.491 23.5568 264.325 24.3523 263.992 25.0227C263.66 25.6932 263.204 26.2102 262.624 26.5739C262.045 26.9375 261.383 27.1193 260.638 27.1193C259.894 27.1193 259.232 26.9375 258.653 26.5739C258.073 26.2102 257.617 25.6932 257.285 25.0227C256.952 24.3523 256.786 23.5568 256.786 22.6364C256.786 21.7159 256.952 20.9205 257.285 20.25C257.617 19.5795 258.073 19.0625 258.653 18.6989C259.232 18.3352 259.894 18.1534 260.638 18.1534C261.383 18.1534 262.045 18.3352 262.624 18.6989C263.204 19.0625 263.66 19.5795 263.992 20.25C264.325 20.9205 264.491 21.7159 264.491 22.6364ZM263.468 22.6364C263.468 21.8807 263.342 21.2429 263.089 20.723C262.839 20.2031 262.499 19.8097 262.07 19.5426C261.644 19.2756 261.167 19.142 260.638 19.142C260.11 19.142 259.631 19.2756 259.202 19.5426C258.776 19.8097 258.437 20.2031 258.184 20.723C257.934 21.2429 257.809 21.8807 257.809 22.6364C257.809 23.392 257.934 24.0298 258.184 24.5497C258.437 25.0696 258.776 25.4631 259.202 25.7301C259.631 25.9972 260.11 26.1307 260.638 26.1307C261.167 26.1307 261.644 25.9972 262.07 25.7301C262.499 25.4631 262.839 25.0696 263.089 24.5497C263.342 24.0298 263.468 23.392 263.468 22.6364ZM273.495 18.2727H274.552V24.0511C274.552 24.6477 274.411 25.1804 274.13 25.6491C273.852 26.1151 273.458 26.483 272.95 26.7528C272.441 27.0199 271.844 27.1534 271.16 27.1534C270.475 27.1534 269.879 27.0199 269.37 26.7528C268.862 26.483 268.467 26.1151 268.185 25.6491C267.907 25.1804 267.768 24.6477 267.768 24.0511V18.2727H268.825V23.9659C268.825 24.392 268.918 24.7713 269.106 25.1037C269.293 25.4332 269.56 25.6932 269.907 25.8835C270.256 26.071 270.674 26.1648 271.16 26.1648C271.646 26.1648 272.063 26.071 272.413 25.8835C272.762 25.6932 273.029 25.4332 273.214 25.1037C273.401 24.7713 273.495 24.392 273.495 23.9659V18.2727ZM278.162 27V18.2727H281.111C281.793 18.2727 282.353 18.3892 282.79 18.6222C283.228 18.8523 283.551 19.169 283.762 19.5724C283.972 19.9759 284.077 20.4347 284.077 20.9489C284.077 21.4631 283.972 21.919 283.762 22.3168C283.551 22.7145 283.229 23.027 282.794 23.2543C282.36 23.4787 281.804 23.5909 281.128 23.5909H278.742V22.6364H281.094C281.56 22.6364 281.935 22.5682 282.219 22.4318C282.506 22.2955 282.713 22.1023 282.841 21.8523C282.972 21.5994 283.037 21.2983 283.037 20.9489C283.037 20.5994 282.972 20.294 282.841 20.0327C282.711 19.7713 282.502 19.5696 282.215 19.4276C281.928 19.2827 281.549 19.2102 281.077 19.2102H279.219V27H278.162ZM282.27 23.0795L284.418 27H283.191L281.077 23.0795H282.27ZM291.736 19.2102V18.2727H298.281V19.2102H295.537V27H294.48V19.2102H291.736ZM301.412 27V18.2727H306.679V19.2102H302.469V22.1591H306.407V23.0966H302.469V26.0625H306.748V27H301.412ZM310.596 18.2727L312.846 21.9034H312.914L315.164 18.2727H316.408L313.664 22.6364L316.408 27H315.164L312.914 23.4375H312.846L310.596 27H309.351L312.164 22.6364L309.351 18.2727H310.596ZM318.806 19.2102V18.2727H325.352V19.2102H322.607V27H321.55V19.2102H318.806ZM333.358 27V18.2727H334.414V22.1591H339.068V18.2727H340.125V27H339.068V23.0966H334.414V27H333.358ZM343.74 27V18.2727H349.007V19.2102H344.797V22.1591H348.735V23.0966H344.797V26.0625H349.076V27H343.74ZM352.412 27V18.2727H355.361C356.043 18.2727 356.603 18.3892 357.04 18.6222C357.478 18.8523 357.801 19.169 358.012 19.5724C358.222 19.9759 358.327 20.4347 358.327 20.9489C358.327 21.4631 358.222 21.919 358.012 22.3168C357.801 22.7145 357.479 23.027 357.044 23.2543C356.61 23.4787 356.054 23.5909 355.378 23.5909H352.992V22.6364H355.344C355.81 22.6364 356.185 22.5682 356.469 22.4318C356.756 22.2955 356.963 22.1023 357.091 21.8523C357.222 21.5994 357.287 21.2983 357.287 20.9489C357.287 20.5994 357.222 20.294 357.091 20.0327C356.961 19.7713 356.752 19.5696 356.465 19.4276C356.178 19.2827 355.799 19.2102 355.327 19.2102H353.469V27H352.412ZM356.52 23.0795L358.668 27H357.441L355.327 23.0795H356.52ZM361.588 27V18.2727H366.855V19.2102H362.645V22.1591H366.582V23.0966H362.645V26.0625H366.923V27H361.588Z" fill="white"/>
<path d="M416.608 18.2135C416.617 18.0016 416.966 17.9169 417.07 18.1018C417.56 18.9687 418.392 20.242 419.336 20.8219C420.28 21.3998 421.794 21.5655 422.788 21.6079C423 21.6175 423.082 21.9662 422.898 22.0702C422.031 22.5595 420.759 23.3917 420.179 24.3356C419.6 25.2796 419.436 26.7937 419.393 27.7878C419.384 27.9997 419.033 28.0825 418.931 27.8976C418.442 27.0307 417.61 25.7593 416.664 25.1794C415.72 24.5996 414.206 24.4358 413.214 24.3934C413.002 24.3838 412.917 24.0332 413.102 23.9311C413.969 23.4418 415.242 22.6096 415.822 21.6637C416.4 20.7198 416.565 19.2056 416.608 18.2135Z" fill="white"/>
<path d="M484.307 18.2727H485.517L487.938 22.3466H488.04L490.46 18.2727H491.67L488.517 23.4034V27H487.46V23.4034L484.307 18.2727ZM501.491 22.6364C501.491 23.5568 501.325 24.3523 500.992 25.0227C500.66 25.6932 500.204 26.2102 499.624 26.5739C499.045 26.9375 498.383 27.1193 497.638 27.1193C496.894 27.1193 496.232 26.9375 495.653 26.5739C495.073 26.2102 494.617 25.6932 494.285 25.0227C493.952 24.3523 493.786 23.5568 493.786 22.6364C493.786 21.7159 493.952 20.9205 494.285 20.25C494.617 19.5795 495.073 19.0625 495.653 18.6989C496.232 18.3352 496.894 18.1534 497.638 18.1534C498.383 18.1534 499.045 18.3352 499.624 18.6989C500.204 19.0625 500.66 19.5795 500.992 20.25C501.325 20.9205 501.491 21.7159 501.491 22.6364ZM500.468 22.6364C500.468 21.8807 500.342 21.2429 500.089 20.723C499.839 20.2031 499.499 19.8097 499.07 19.5426C498.644 19.2756 498.167 19.142 497.638 19.142C497.11 19.142 496.631 19.2756 496.202 19.5426C495.776 19.8097 495.437 20.2031 495.184 20.723C494.934 21.2429 494.809 21.8807 494.809 22.6364C494.809 23.392 494.934 24.0298 495.184 24.5497C495.437 25.0696 495.776 25.4631 496.202 25.7301C496.631 25.9972 497.11 26.1307 497.638 26.1307C498.167 26.1307 498.644 25.9972 499.07 25.7301C499.499 25.4631 499.839 25.0696 500.089 24.5497C500.342 24.0298 500.468 23.392 500.468 22.6364ZM510.495 18.2727H511.552V24.0511C511.552 24.6477 511.411 25.1804 511.13 25.6491C510.852 26.1151 510.458 26.483 509.95 26.7528C509.441 27.0199 508.844 27.1534 508.16 27.1534C507.475 27.1534 506.879 27.0199 506.37 26.7528C505.862 26.483 505.467 26.1151 505.185 25.6491C504.907 25.1804 504.768 24.6477 504.768 24.0511V18.2727H505.825V23.9659C505.825 24.392 505.918 24.7713 506.106 25.1037C506.293 25.4332 506.56 25.6932 506.907 25.8835C507.256 26.071 507.674 26.1648 508.16 26.1648C508.646 26.1648 509.063 26.071 509.413 25.8835C509.762 25.6932 510.029 25.4332 510.214 25.1037C510.401 24.7713 510.495 24.392 510.495 23.9659V18.2727ZM515.162 27V18.2727H518.111C518.793 18.2727 519.353 18.3892 519.79 18.6222C520.228 18.8523 520.551 19.169 520.762 19.5724C520.972 19.9759 521.077 20.4347 521.077 20.9489C521.077 21.4631 520.972 21.919 520.762 22.3168C520.551 22.7145 520.229 23.027 519.794 23.2543C519.36 23.4787 518.804 23.5909 518.128 23.5909H515.742V22.6364H518.094C518.56 22.6364 518.935 22.5682 519.219 22.4318C519.506 22.2955 519.713 22.1023 519.841 21.8523C519.972 21.5994 520.037 21.2983 520.037 20.9489C520.037 20.5994 519.972 20.294 519.841 20.0327C519.711 19.7713 519.502 19.5696 519.215 19.4276C518.928 19.2827 518.549 19.2102 518.077 19.2102H516.219V27H515.162ZM519.27 23.0795L521.418 27H520.191L518.077 23.0795H519.27ZM528.736 19.2102V18.2727H535.281V19.2102H532.537V27H531.48V19.2102H528.736ZM538.412 27V18.2727H543.679V19.2102H539.469V22.1591H543.407V23.0966H539.469V26.0625H543.748V27H538.412ZM547.596 18.2727L549.846 21.9034H549.914L552.164 18.2727H553.408L550.664 22.6364L553.408 27H552.164L549.914 23.4375H549.846L547.596 27H546.351L549.164 22.6364L546.351 18.2727H547.596ZM555.806 19.2102V18.2727H562.352V19.2102H559.607V27H558.55V19.2102H555.806ZM570.358 27V18.2727H571.414V22.1591H576.068V18.2727H577.125V27H576.068V23.0966H571.414V27H570.358ZM580.74 27V18.2727H586.007V19.2102H581.797V22.1591H585.735V23.0966H581.797V26.0625H586.076V27H580.74ZM589.412 27V18.2727H592.361C593.043 18.2727 593.603 18.3892 594.04 18.6222C594.478 18.8523 594.801 19.169 595.012 19.5724C595.222 19.9759 595.327 20.4347 595.327 20.9489C595.327 21.4631 595.222 21.919 595.012 22.3168C594.801 22.7145 594.479 23.027 594.044 23.2543C593.61 23.4787 593.054 23.5909 592.378 23.5909H589.992V22.6364H592.344C592.81 22.6364 593.185 22.5682 593.469 22.4318C593.756 22.2955 593.963 22.1023 594.091 21.8523C594.222 21.5994 594.287 21.2983 594.287 20.9489C594.287 20.5994 594.222 20.294 594.091 20.0327C593.961 19.7713 593.752 19.5696 593.465 19.4276C593.178 19.2827 592.799 19.2102 592.327 19.2102H590.469V27H589.412ZM593.52 23.0795L595.668 27H594.441L592.327 23.0795H593.52ZM598.588 27V18.2727H603.855V19.2102H599.645V22.1591H603.582V23.0966H599.645V26.0625H603.923V27H598.588Z" fill="white"/>
<path d="M653.608 18.2135C653.617 18.0016 653.966 17.9169 654.07 18.1018C654.56 18.9687 655.392 20.242 656.336 20.8219C657.28 21.3998 658.794 21.5655 659.788 21.6079C660 21.6175 660.082 21.9662 659.898 22.0702C659.031 22.5595 657.759 23.3917 657.179 24.3356C656.6 25.2796 656.436 26.7937 656.393 27.7878C656.384 27.9997 656.033 28.0825 655.931 27.8976C655.442 27.0307 654.61 25.7593 653.664 25.1794C652.72 24.5996 651.206 24.4358 650.214 24.3934C650.002 24.3838 649.917 24.0332 650.102 23.9311C650.969 23.4418 652.242 22.6096 652.822 21.6637C653.4 20.7198 653.565 19.2056 653.608 18.2135Z" fill="white"/>
<path d="M721.307 18.2727H722.517L724.938 22.3466H725.04L727.46 18.2727H728.67L725.517 23.4034V27H724.46V23.4034L721.307 18.2727ZM738.491 22.6364C738.491 23.5568 738.325 24.3523 737.992 25.0227C737.66 25.6932 737.204 26.2102 736.624 26.5739C736.045 26.9375 735.383 27.1193 734.638 27.1193C733.894 27.1193 733.232 26.9375 732.653 26.5739C732.073 26.2102 731.617 25.6932 731.285 25.0227C730.952 24.3523 730.786 23.5568 730.786 22.6364C730.786 21.7159 730.952 20.9205 731.285 20.25C731.617 19.5795 732.073 19.0625 732.653 18.6989C733.232 18.3352 733.894 18.1534 734.638 18.1534C735.383 18.1534 736.045 18.3352 736.624 18.6989C737.204 19.0625 737.66 19.5795 737.992 20.25C738.325 20.9205 738.491 21.7159 738.491 22.6364ZM737.468 22.6364C737.468 21.8807 737.342 21.2429 737.089 20.723C736.839 20.2031 736.499 19.8097 736.07 19.5426C735.644 19.2756 735.167 19.142 734.638 19.142C734.11 19.142 733.631 19.2756 733.202 19.5426C732.776 19.8097 732.437 20.2031 732.184 20.723C731.934 21.2429 731.809 21.8807 731.809 22.6364C731.809 23.392 731.934 24.0298 732.184 24.5497C732.437 25.0696 732.776 25.4631 733.202 25.7301C733.631 25.9972 734.11 26.1307 734.638 26.1307C735.167 26.1307 735.644 25.9972 736.07 25.7301C736.499 25.4631 736.839 25.0696 737.089 24.5497C737.342 24.0298 737.468 23.392 737.468 22.6364ZM747.495 18.2727H748.552V24.0511C748.552 24.6477 748.411 25.1804 748.13 25.6491C747.852 26.1151 747.458 26.483 746.95 26.7528C746.441 27.0199 745.844 27.1534 745.16 27.1534C744.475 27.1534 743.879 27.0199 743.37 26.7528C742.862 26.483 742.467 26.1151 742.185 25.6491C741.907 25.1804 741.768 24.6477 741.768 24.0511V18.2727H742.825V23.9659C742.825 24.392 742.918 24.7713 743.106 25.1037C743.293 25.4332 743.56 25.6932 743.907 25.8835C744.256 26.071 744.674 26.1648 745.16 26.1648C745.646 26.1648 746.063 26.071 746.413 25.8835C746.762 25.6932 747.029 25.4332 747.214 25.1037C747.401 24.7713 747.495 24.392 747.495 23.9659V18.2727ZM752.162 27V18.2727H755.111C755.793 18.2727 756.353 18.3892 756.79 18.6222C757.228 18.8523 757.551 19.169 757.762 19.5724C757.972 19.9759 758.077 20.4347 758.077 20.9489C758.077 21.4631 757.972 21.919 757.762 22.3168C757.551 22.7145 757.229 23.027 756.794 23.2543C756.36 23.4787 755.804 23.5909 755.128 23.5909H752.742V22.6364H755.094C755.56 22.6364 755.935 22.5682 756.219 22.4318C756.506 22.2955 756.713 22.1023 756.841 21.8523C756.972 21.5994 757.037 21.2983 757.037 20.9489C757.037 20.5994 756.972 20.294 756.841 20.0327C756.711 19.7713 756.502 19.5696 756.215 19.4276C755.928 19.2827 755.549 19.2102 755.077 19.2102H753.219V27H752.162ZM756.27 23.0795L758.418 27H757.191L755.077 23.0795H756.27ZM765.736 19.2102V18.2727H772.281V19.2102H769.537V27H768.48V19.2102H765.736ZM775.412 27V18.2727H780.679V19.2102H776.469V22.1591H780.407V23.0966H776.469V26.0625H780.748V27H775.412ZM784.596 18.2727L786.846 21.9034H786.914L789.164 18.2727H790.408L787.664 22.6364L790.408 27H789.164L786.914 23.4375H786.846L784.596 27H783.351L786.164 22.6364L783.351 18.2727H784.596ZM792.806 19.2102V18.2727H799.352V19.2102H796.607V27H795.55V19.2102H792.806ZM807.358 27V18.2727H808.414V22.1591H813.068V18.2727H814.125V27H813.068V23.0966H808.414V27H807.358ZM817.74 27V18.2727H823.007V19.2102H818.797V22.1591H822.735V23.0966H818.797V26.0625H823.076V27H817.74ZM826.412 27V18.2727H829.361C830.043 18.2727 830.603 18.3892 831.04 18.6222C831.478 18.8523 831.801 19.169 832.012 19.5724C832.222 19.9759 832.327 20.4347 832.327 20.9489C832.327 21.4631 832.222 21.919 832.012 22.3168C831.801 22.7145 831.479 23.027 831.044 23.2543C830.61 23.4787 830.054 23.5909 829.378 23.5909H826.992V22.6364H829.344C829.81 22.6364 830.185 22.5682 830.469 22.4318C830.756 22.2955 830.963 22.1023 831.091 21.8523C831.222 21.5994 831.287 21.2983 831.287 20.9489C831.287 20.5994 831.222 20.294 831.091 20.0327C830.961 19.7713 830.752 19.5696 830.465 19.4276C830.178 19.2827 829.799 19.2102 829.327 19.2102H827.469V27H826.412ZM830.52 23.0795L832.668 27H831.441L829.327 23.0795H830.52ZM835.588 27V18.2727H840.855V19.2102H836.645V22.1591H840.582V23.0966H836.645V26.0625H840.923V27H835.588Z" fill="white"/>
<path d="M890.608 18.2135C890.617 18.0016 890.966 17.9169 891.07 18.1018C891.56 18.9687 892.392 20.242 893.336 20.8219C894.28 21.3998 895.794 21.5655 896.788 21.6079C897 21.6175 897.082 21.9662 896.898 22.0702C896.031 22.5595 894.759 23.3917 894.179 24.3356C893.6 25.2796 893.436 26.7937 893.393 27.7878C893.384 27.9997 893.033 28.0825 892.931 27.8976C892.442 27.0307 891.61 25.7593 890.664 25.1794C889.72 24.5996 888.206 24.4358 887.214 24.3934C887.002 24.3838 886.917 24.0332 887.102 23.9311C887.969 23.4418 889.242 22.6096 889.822 21.6637C890.4 20.7198 890.565 19.2056 890.608 18.2135Z" fill="white"/>
<path d="M958.307 18.2727H959.517L961.938 22.3466H962.04L964.46 18.2727H965.67L962.517 23.4034V27H961.46V23.4034L958.307 18.2727ZM975.491 22.6364C975.491 23.5568 975.325 24.3523 974.992 25.0227C974.66 25.6932 974.204 26.2102 973.624 26.5739C973.045 26.9375 972.383 27.1193 971.638 27.1193C970.894 27.1193 970.232 26.9375 969.653 26.5739C969.073 26.2102 968.617 25.6932 968.285 25.0227C967.952 24.3523 967.786 23.5568 967.786 22.6364C967.786 21.7159 967.952 20.9205 968.285 20.25C968.617 19.5795 969.073 19.0625 969.653 18.6989C970.232 18.3352 970.894 18.1534 971.638 18.1534C972.383 18.1534 973.045 18.3352 973.624 18.6989C974.204 19.0625 974.66 19.5795 974.992 20.25C975.325 20.9205 975.491 21.7159 975.491 22.6364ZM974.468 22.6364C974.468 21.8807 974.342 21.2429 974.089 20.723C973.839 20.2031 973.499 19.8097 973.07 19.5426C972.644 19.2756 972.167 19.142 971.638 19.142C971.11 19.142 970.631 19.2756 970.202 19.5426C969.776 19.8097 969.437 20.2031 969.184 20.723C968.934 21.2429 968.809 21.8807 968.809 22.6364C968.809 23.392 968.934 24.0298 969.184 24.5497C969.437 25.0696 969.776 25.4631 970.202 25.7301C970.631 25.9972 971.11 26.1307 971.638 26.1307C972.167 26.1307 972.644 25.9972 973.07 25.7301C973.499 25.4631 973.839 25.0696 974.089 24.5497C974.342 24.0298 974.468 23.392 974.468 22.6364ZM984.495 18.2727H985.552V24.0511C985.552 24.6477 985.411 25.1804 985.13 25.6491C984.852 26.1151 984.458 26.483 983.95 26.7528C983.441 27.0199 982.844 27.1534 982.16 27.1534C981.475 27.1534 980.879 27.0199 980.37 26.7528C979.862 26.483 979.467 26.1151 979.185 25.6491C978.907 25.1804 978.768 24.6477 978.768 24.0511V18.2727H979.825V23.9659C979.825 24.392 979.918 24.7713 980.106 25.1037C980.293 25.4332 980.56 25.6932 980.907 25.8835C981.256 26.071 981.674 26.1648 982.16 26.1648C982.646 26.1648 983.063 26.071 983.413 25.8835C983.762 25.6932 984.029 25.4332 984.214 25.1037C984.401 24.7713 984.495 24.392 984.495 23.9659V18.2727ZM989.162 27V18.2727H992.111C992.793 18.2727 993.353 18.3892 993.79 18.6222C994.228 18.8523 994.551 19.169 994.762 19.5724C994.972 19.9759 995.077 20.4347 995.077 20.9489C995.077 21.4631 994.972 21.919 994.762 22.3168C994.551 22.7145 994.229 23.027 993.794 23.2543C993.36 23.4787 992.804 23.5909 992.128 23.5909H989.742V22.6364H992.094C992.56 22.6364 992.935 22.5682 993.219 22.4318C993.506 22.2955 993.713 22.1023 993.841 21.8523C993.972 21.5994 994.037 21.2983 994.037 20.9489C994.037 20.5994 993.972 20.294 993.841 20.0327C993.711 19.7713 993.502 19.5696 993.215 19.4276C992.928 19.2827 992.549 19.2102 992.077 19.2102H990.219V27H989.162ZM993.27 23.0795L995.418 27H994.191L992.077 23.0795H993.27ZM1002.74 19.2102V18.2727H1009.28V19.2102H1006.54V27H1005.48V19.2102H1002.74ZM1012.41 27V18.2727H1017.68V19.2102H1013.47V22.1591H1017.41V23.0966H1013.47V26.0625H1017.75V27H1012.41ZM1021.6 18.2727L1023.85 21.9034H1023.91L1026.16 18.2727H1027.41L1024.66 22.6364L1027.41 27H1026.16L1023.91 23.4375H1023.85L1021.6 27H1020.35L1023.16 22.6364L1020.35 18.2727H1021.6ZM1029.81 19.2102V18.2727H1036.35V19.2102H1033.61V27H1032.55V19.2102H1029.81ZM1044.36 27V18.2727H1045.41V22.1591H1050.07V18.2727H1051.12V27H1050.07V23.0966H1045.41V27H1044.36ZM1054.74 27V18.2727H1060.01V19.2102H1055.8V22.1591H1059.73V23.0966H1055.8V26.0625H1060.08V27H1054.74ZM1063.41 27V18.2727H1066.36C1067.04 18.2727 1067.6 18.3892 1068.04 18.6222C1068.48 18.8523 1068.8 19.169 1069.01 19.5724C1069.22 19.9759 1069.33 20.4347 1069.33 20.9489C1069.33 21.4631 1069.22 21.919 1069.01 22.3168C1068.8 22.7145 1068.48 23.027 1068.04 23.2543C1067.61 23.4787 1067.05 23.5909 1066.38 23.5909H1063.99V22.6364H1066.34C1066.81 22.6364 1067.19 22.5682 1067.47 22.4318C1067.76 22.2955 1067.96 22.1023 1068.09 21.8523C1068.22 21.5994 1068.29 21.2983 1068.29 20.9489C1068.29 20.5994 1068.22 20.294 1068.09 20.0327C1067.96 19.7713 1067.75 19.5696 1067.46 19.4276C1067.18 19.2827 1066.8 19.2102 1066.33 19.2102H1064.47V27H1063.41ZM1067.52 23.0795L1069.67 27H1068.44L1066.33 23.0795H1067.52ZM1072.59 27V18.2727H1077.86V19.2102H1073.64V22.1591H1077.58V23.0966H1073.64V26.0625H1077.92V27H1072.59Z" fill="white"/>
<path d="M1127.61 18.2135C1127.62 18.0016 1127.97 17.9169 1128.07 18.1018C1128.56 18.9687 1129.39 20.242 1130.34 20.8219C1131.28 21.3998 1132.79 21.5655 1133.79 21.6079C1134 21.6175 1134.08 21.9662 1133.9 22.0702C1133.03 22.5595 1131.76 23.3917 1131.18 24.3356C1130.6 25.2796 1130.44 26.7937 1130.39 27.7878C1130.38 27.9997 1130.03 28.0825 1129.93 27.8976C1129.44 27.0307 1128.61 25.7593 1127.66 25.1794C1126.72 24.5996 1125.21 24.4358 1124.21 24.3934C1124 24.3838 1123.92 24.0332 1124.1 23.9311C1124.97 23.4418 1126.24 22.6096 1126.82 21.6637C1127.4 20.7198 1127.57 19.2056 1127.61 18.2135Z" fill="white"/>
<path d="M1195.31 18.2727H1196.52L1198.94 22.3466H1199.04L1201.46 18.2727H1202.67L1199.52 23.4034V27H1198.46V23.4034L1195.31 18.2727ZM1212.49 22.6364C1212.49 23.5568 1212.32 24.3523 1211.99 25.0227C1211.66 25.6932 1211.2 26.2102 1210.62 26.5739C1210.04 26.9375 1209.38 27.1193 1208.64 27.1193C1207.89 27.1193 1207.23 26.9375 1206.65 26.5739C1206.07 26.2102 1205.62 25.6932 1205.28 25.0227C1204.95 24.3523 1204.79 23.5568 1204.79 22.6364C1204.79 21.7159 1204.95 20.9205 1205.28 20.25C1205.62 19.5795 1206.07 19.0625 1206.65 18.6989C1207.23 18.3352 1207.89 18.1534 1208.64 18.1534C1209.38 18.1534 1210.04 18.3352 1210.62 18.6989C1211.2 19.0625 1211.66 19.5795 1211.99 20.25C1212.32 20.9205 1212.49 21.7159 1212.49 22.6364ZM1211.47 22.6364C1211.47 21.8807 1211.34 21.2429 1211.09 20.723C1210.84 20.2031 1210.5 19.8097 1210.07 19.5426C1209.64 19.2756 1209.17 19.142 1208.64 19.142C1208.11 19.142 1207.63 19.2756 1207.2 19.5426C1206.78 19.8097 1206.44 20.2031 1206.18 20.723C1205.93 21.2429 1205.81 21.8807 1205.81 22.6364C1205.81 23.392 1205.93 24.0298 1206.18 24.5497C1206.44 25.0696 1206.78 25.4631 1207.2 25.7301C1207.63 25.9972 1208.11 26.1307 1208.64 26.1307C1209.17 26.1307 1209.64 25.9972 1210.07 25.7301C1210.5 25.4631 1210.84 25.0696 1211.09 24.5497C1211.34 24.0298 1211.47 23.392 1211.47 22.6364ZM1221.5 18.2727H1222.55V24.0511C1222.55 24.6477 1222.41 25.1804 1222.13 25.6491C1221.85 26.1151 1221.46 26.483 1220.95 26.7528C1220.44 27.0199 1219.84 27.1534 1219.16 27.1534C1218.48 27.1534 1217.88 27.0199 1217.37 26.7528C1216.86 26.483 1216.47 26.1151 1216.19 25.6491C1215.91 25.1804 1215.77 24.6477 1215.77 24.0511V18.2727H1216.82V23.9659C1216.82 24.392 1216.92 24.7713 1217.11 25.1037C1217.29 25.4332 1217.56 25.6932 1217.91 25.8835C1218.26 26.071 1218.67 26.1648 1219.16 26.1648C1219.65 26.1648 1220.06 26.071 1220.41 25.8835C1220.76 25.6932 1221.03 25.4332 1221.21 25.1037C1221.4 24.7713 1221.5 24.392 1221.5 23.9659V18.2727ZM1226.16 27V18.2727H1229.11C1229.79 18.2727 1230.35 18.3892 1230.79 18.6222C1231.23 18.8523 1231.55 19.169 1231.76 19.5724C1231.97 19.9759 1232.08 20.4347 1232.08 20.9489C1232.08 21.4631 1231.97 21.919 1231.76 22.3168C1231.55 22.7145 1231.23 23.027 1230.79 23.2543C1230.36 23.4787 1229.8 23.5909 1229.13 23.5909H1226.74V22.6364H1229.09C1229.56 22.6364 1229.94 22.5682 1230.22 22.4318C1230.51 22.2955 1230.71 22.1023 1230.84 21.8523C1230.97 21.5994 1231.04 21.2983 1231.04 20.9489C1231.04 20.5994 1230.97 20.294 1230.84 20.0327C1230.71 19.7713 1230.5 19.5696 1230.21 19.4276C1229.93 19.2827 1229.55 19.2102 1229.08 19.2102H1227.22V27H1226.16ZM1230.27 23.0795L1232.42 27H1231.19L1229.08 23.0795H1230.27ZM1239.74 19.2102V18.2727H1246.28V19.2102H1243.54V27H1242.48V19.2102H1239.74ZM1249.41 27V18.2727H1254.68V19.2102H1250.47V22.1591H1254.41V23.0966H1250.47V26.0625H1254.75V27H1249.41ZM1258.6 18.2727L1260.85 21.9034H1260.91L1263.16 18.2727H1264.41L1261.66 22.6364L1264.41 27H1263.16L1260.91 23.4375H1260.85L1258.6 27H1257.35L1260.16 22.6364L1257.35 18.2727H1258.6ZM1266.81 19.2102V18.2727H1273.35V19.2102H1270.61V27H1269.55V19.2102H1266.81ZM1281.36 27V18.2727H1282.41V22.1591H1287.07V18.2727H1288.12V27H1287.07V23.0966H1282.41V27H1281.36ZM1291.74 27V18.2727H1297.01V19.2102H1292.8V22.1591H1296.73V23.0966H1292.8V26.0625H1297.08V27H1291.74ZM1300.41 27V18.2727H1303.36C1304.04 18.2727 1304.6 18.3892 1305.04 18.6222C1305.48 18.8523 1305.8 19.169 1306.01 19.5724C1306.22 19.9759 1306.33 20.4347 1306.33 20.9489C1306.33 21.4631 1306.22 21.919 1306.01 22.3168C1305.8 22.7145 1305.48 23.027 1305.04 23.2543C1304.61 23.4787 1304.05 23.5909 1303.38 23.5909H1300.99V22.6364H1303.34C1303.81 22.6364 1304.19 22.5682 1304.47 22.4318C1304.76 22.2955 1304.96 22.1023 1305.09 21.8523C1305.22 21.5994 1305.29 21.2983 1305.29 20.9489C1305.29 20.5994 1305.22 20.294 1305.09 20.0327C1304.96 19.7713 1304.75 19.5696 1304.46 19.4276C1304.18 19.2827 1303.8 19.2102 1303.33 19.2102H1301.47V27H1300.41ZM1304.52 23.0795L1306.67 27H1305.44L1303.33 23.0795H1304.52ZM1309.59 27V18.2727H1314.86V19.2102H1310.64V22.1591H1314.58V23.0966H1310.64V26.0625H1314.92V27H1309.59Z" fill="white"/>
<path d="M1364.61 18.2135C1364.62 18.0016 1364.97 17.9169 1365.07 18.1018C1365.56 18.9687 1366.39 20.242 1367.34 20.8219C1368.28 21.3998 1369.79 21.5655 1370.79 21.6079C1371 21.6175 1371.08 21.9662 1370.9 22.0702C1370.03 22.5595 1368.76 23.3917 1368.18 24.3356C1367.6 25.2796 1367.44 26.7937 1367.39 27.7878C1367.38 27.9997 1367.03 28.0825 1366.93 27.8976C1366.44 27.0307 1365.61 25.7593 1364.66 25.1794C1363.72 24.5996 1362.21 24.4358 1361.21 24.3934C1361 24.3838 1360.92 24.0332 1361.1 23.9311C1361.97 23.4418 1363.24 22.6096 1363.82 21.6637C1364.4 20.7198 1364.57 19.2056 1364.61 18.2135Z" fill="white"/>
<path d="M1432.31 18.2727H1433.52L1435.94 22.3466H1436.04L1438.46 18.2727H1439.67L1436.52 23.4034V27H1435.46V23.4034L1432.31 18.2727ZM1449.49 22.6364C1449.49 23.5568 1449.32 24.3523 1448.99 25.0227C1448.66 25.6932 1448.2 26.2102 1447.62 26.5739C1447.04 26.9375 1446.38 27.1193 1445.64 27.1193C1444.89 27.1193 1444.23 26.9375 1443.65 26.5739C1443.07 26.2102 1442.62 25.6932 1442.28 25.0227C1441.95 24.3523 1441.79 23.5568 1441.79 22.6364C1441.79 21.7159 1441.95 20.9205 1442.28 20.25C1442.62 19.5795 1443.07 19.0625 1443.65 18.6989C1444.23 18.3352 1444.89 18.1534 1445.64 18.1534C1446.38 18.1534 1447.04 18.3352 1447.62 18.6989C1448.2 19.0625 1448.66 19.5795 1448.99 20.25C1449.32 20.9205 1449.49 21.7159 1449.49 22.6364ZM1448.47 22.6364C1448.47 21.8807 1448.34 21.2429 1448.09 20.723C1447.84 20.2031 1447.5 19.8097 1447.07 19.5426C1446.64 19.2756 1446.17 19.142 1445.64 19.142C1445.11 19.142 1444.63 19.2756 1444.2 19.5426C1443.78 19.8097 1443.44 20.2031 1443.18 20.723C1442.93 21.2429 1442.81 21.8807 1442.81 22.6364C1442.81 23.392 1442.93 24.0298 1443.18 24.5497C1443.44 25.0696 1443.78 25.4631 1444.2 25.7301C1444.63 25.9972 1445.11 26.1307 1445.64 26.1307C1446.17 26.1307 1446.64 25.9972 1447.07 25.7301C1447.5 25.4631 1447.84 25.0696 1448.09 24.5497C1448.34 24.0298 1448.47 23.392 1448.47 22.6364ZM1458.5 18.2727H1459.55V24.0511C1459.55 24.6477 1459.41 25.1804 1459.13 25.6491C1458.85 26.1151 1458.46 26.483 1457.95 26.7528C1457.44 27.0199 1456.84 27.1534 1456.16 27.1534C1455.48 27.1534 1454.88 27.0199 1454.37 26.7528C1453.86 26.483 1453.47 26.1151 1453.19 25.6491C1452.91 25.1804 1452.77 24.6477 1452.77 24.0511V18.2727H1453.82V23.9659C1453.82 24.392 1453.92 24.7713 1454.11 25.1037C1454.29 25.4332 1454.56 25.6932 1454.91 25.8835C1455.26 26.071 1455.67 26.1648 1456.16 26.1648C1456.65 26.1648 1457.06 26.071 1457.41 25.8835C1457.76 25.6932 1458.03 25.4332 1458.21 25.1037C1458.4 24.7713 1458.5 24.392 1458.5 23.9659V18.2727ZM1463.16 27V18.2727H1466.11C1466.79 18.2727 1467.35 18.3892 1467.79 18.6222C1468.23 18.8523 1468.55 19.169 1468.76 19.5724C1468.97 19.9759 1469.08 20.4347 1469.08 20.9489C1469.08 21.4631 1468.97 21.919 1468.76 22.3168C1468.55 22.7145 1468.23 23.027 1467.79 23.2543C1467.36 23.4787 1466.8 23.5909 1466.13 23.5909H1463.74V22.6364H1466.09C1466.56 22.6364 1466.94 22.5682 1467.22 22.4318C1467.51 22.2955 1467.71 22.1023 1467.84 21.8523C1467.97 21.5994 1468.04 21.2983 1468.04 20.9489C1468.04 20.5994 1467.97 20.294 1467.84 20.0327C1467.71 19.7713 1467.5 19.5696 1467.21 19.4276C1466.93 19.2827 1466.55 19.2102 1466.08 19.2102H1464.22V27H1463.16ZM1467.27 23.0795L1469.42 27H1468.19L1466.08 23.0795H1467.27ZM1476.74 19.2102V18.2727H1483.28V19.2102H1480.54V27H1479.48V19.2102H1476.74ZM1486.41 27V18.2727H1491.68V19.2102H1487.47V22.1591H1491.41V23.0966H1487.47V26.0625H1491.75V27H1486.41ZM1495.6 18.2727L1497.85 21.9034H1497.91L1500.16 18.2727H1501.41L1498.66 22.6364L1501.41 27H1500.16L1497.91 23.4375H1497.85L1495.6 27H1494.35L1497.16 22.6364L1494.35 18.2727H1495.6ZM1503.81 19.2102V18.2727H1510.35V19.2102H1507.61V27H1506.55V19.2102H1503.81ZM1518.36 27V18.2727H1519.41V22.1591H1524.07V18.2727H1525.12V27H1524.07V23.0966H1519.41V27H1518.36ZM1528.74 27V18.2727H1534.01V19.2102H1529.8V22.1591H1533.73V23.0966H1529.8V26.0625H1534.08V27H1528.74ZM1537.41 27V18.2727H1540.36C1541.04 18.2727 1541.6 18.3892 1542.04 18.6222C1542.48 18.8523 1542.8 19.169 1543.01 19.5724C1543.22 19.9759 1543.33 20.4347 1543.33 20.9489C1543.33 21.4631 1543.22 21.919 1543.01 22.3168C1542.8 22.7145 1542.48 23.027 1542.04 23.2543C1541.61 23.4787 1541.05 23.5909 1540.38 23.5909H1537.99V22.6364H1540.34C1540.81 22.6364 1541.19 22.5682 1541.47 22.4318C1541.76 22.2955 1541.96 22.1023 1542.09 21.8523C1542.22 21.5994 1542.29 21.2983 1542.29 20.9489C1542.29 20.5994 1542.22 20.294 1542.09 20.0327C1541.96 19.7713 1541.75 19.5696 1541.46 19.4276C1541.18 19.2827 1540.8 19.2102 1540.33 19.2102H1538.47V27H1537.41ZM1541.52 23.0795L1543.67 27H1542.44L1540.33 23.0795H1541.52ZM1546.59 27V18.2727H1551.86V19.2102H1547.64V22.1591H1551.58V23.0966H1547.64V26.0625H1551.92V27H1546.59Z" fill="white"/>
<path d="M1601.61 18.2135C1601.62 18.0016 1601.97 17.9169 1602.07 18.1018C1602.56 18.9687 1603.39 20.242 1604.34 20.8219C1605.28 21.3998 1606.79 21.5655 1607.79 21.6079C1608 21.6175 1608.08 21.9662 1607.9 22.0702C1607.03 22.5595 1605.76 23.3917 1605.18 24.3356C1604.6 25.2796 1604.44 26.7937 1604.39 27.7878C1604.38 27.9997 1604.03 28.0825 1603.93 27.8976C1603.44 27.0307 1602.61 25.7593 1601.66 25.1794C1600.72 24.5996 1599.21 24.4358 1598.21 24.3934C1598 24.3838 1597.92 24.0332 1598.1 23.9311C1598.97 23.4418 1600.24 22.6096 1600.82 21.6637C1601.4 20.7198 1601.57 19.2056 1601.61 18.2135Z" fill="white"/>
<path d="M1669.31 18.2727H1670.52L1672.94 22.3466H1673.04L1675.46 18.2727H1676.67L1673.52 23.4034V27H1672.46V23.4034L1669.31 18.2727ZM1686.49 22.6364C1686.49 23.5568 1686.32 24.3523 1685.99 25.0227C1685.66 25.6932 1685.2 26.2102 1684.62 26.5739C1684.04 26.9375 1683.38 27.1193 1682.64 27.1193C1681.89 27.1193 1681.23 26.9375 1680.65 26.5739C1680.07 26.2102 1679.62 25.6932 1679.28 25.0227C1678.95 24.3523 1678.79 23.5568 1678.79 22.6364C1678.79 21.7159 1678.95 20.9205 1679.28 20.25C1679.62 19.5795 1680.07 19.0625 1680.65 18.6989C1681.23 18.3352 1681.89 18.1534 1682.64 18.1534C1683.38 18.1534 1684.04 18.3352 1684.62 18.6989C1685.2 19.0625 1685.66 19.5795 1685.99 20.25C1686.32 20.9205 1686.49 21.7159 1686.49 22.6364ZM1685.47 22.6364C1685.47 21.8807 1685.34 21.2429 1685.09 20.723C1684.84 20.2031 1684.5 19.8097 1684.07 19.5426C1683.64 19.2756 1683.17 19.142 1682.64 19.142C1682.11 19.142 1681.63 19.2756 1681.2 19.5426C1680.78 19.8097 1680.44 20.2031 1680.18 20.723C1679.93 21.2429 1679.81 21.8807 1679.81 22.6364C1679.81 23.392 1679.93 24.0298 1680.18 24.5497C1680.44 25.0696 1680.78 25.4631 1681.2 25.7301C1681.63 25.9972 1682.11 26.1307 1682.64 26.1307C1683.17 26.1307 1683.64 25.9972 1684.07 25.7301C1684.5 25.4631 1684.84 25.0696 1685.09 24.5497C1685.34 24.0298 1685.47 23.392 1685.47 22.6364ZM1695.5 18.2727H1696.55V24.0511C1696.55 24.6477 1696.41 25.1804 1696.13 25.6491C1695.85 26.1151 1695.46 26.483 1694.95 26.7528C1694.44 27.0199 1693.84 27.1534 1693.16 27.1534C1692.48 27.1534 1691.88 27.0199 1691.37 26.7528C1690.86 26.483 1690.47 26.1151 1690.19 25.6491C1689.91 25.1804 1689.77 24.6477 1689.77 24.0511V18.2727H1690.82V23.9659C1690.82 24.392 1690.92 24.7713 1691.11 25.1037C1691.29 25.4332 1691.56 25.6932 1691.91 25.8835C1692.26 26.071 1692.67 26.1648 1693.16 26.1648C1693.65 26.1648 1694.06 26.071 1694.41 25.8835C1694.76 25.6932 1695.03 25.4332 1695.21 25.1037C1695.4 24.7713 1695.5 24.392 1695.5 23.9659V18.2727ZM1700.16 27V18.2727H1703.11C1703.79 18.2727 1704.35 18.3892 1704.79 18.6222C1705.23 18.8523 1705.55 19.169 1705.76 19.5724C1705.97 19.9759 1706.08 20.4347 1706.08 20.9489C1706.08 21.4631 1705.97 21.919 1705.76 22.3168C1705.55 22.7145 1705.23 23.027 1704.79 23.2543C1704.36 23.4787 1703.8 23.5909 1703.13 23.5909H1700.74V22.6364H1703.09C1703.56 22.6364 1703.94 22.5682 1704.22 22.4318C1704.51 22.2955 1704.71 22.1023 1704.84 21.8523C1704.97 21.5994 1705.04 21.2983 1705.04 20.9489C1705.04 20.5994 1704.97 20.294 1704.84 20.0327C1704.71 19.7713 1704.5 19.5696 1704.21 19.4276C1703.93 19.2827 1703.55 19.2102 1703.08 19.2102H1701.22V27H1700.16ZM1704.27 23.0795L1706.42 27H1705.19L1703.08 23.0795H1704.27ZM1713.74 19.2102V18.2727H1720.28V19.2102H1717.54V27H1716.48V19.2102H1713.74ZM1723.41 27V18.2727H1728.68V19.2102H1724.47V22.1591H1728.41V23.0966H1724.47V26.0625H1728.75V27H1723.41ZM1732.6 18.2727L1734.85 21.9034H1734.91L1737.16 18.2727H1738.41L1735.66 22.6364L1738.41 27H1737.16L1734.91 23.4375H1734.85L1732.6 27H1731.35L1734.16 22.6364L1731.35 18.2727H1732.6ZM1740.81 19.2102V18.2727H1747.35V19.2102H1744.61V27H1743.55V19.2102H1740.81ZM1755.36 27V18.2727H1756.41V22.1591H1761.07V18.2727H1762.12V27H1761.07V23.0966H1756.41V27H1755.36ZM1765.74 27V18.2727H1771.01V19.2102H1766.8V22.1591H1770.73V23.0966H1766.8V26.0625H1771.08V27H1765.74ZM1774.41 27V18.2727H1777.36C1778.04 18.2727 1778.6 18.3892 1779.04 18.6222C1779.48 18.8523 1779.8 19.169 1780.01 19.5724C1780.22 19.9759 1780.33 20.4347 1780.33 20.9489C1780.33 21.4631 1780.22 21.919 1780.01 22.3168C1779.8 22.7145 1779.48 23.027 1779.04 23.2543C1778.61 23.4787 1778.05 23.5909 1777.38 23.5909H1774.99V22.6364H1777.34C1777.81 22.6364 1778.19 22.5682 1778.47 22.4318C1778.76 22.2955 1778.96 22.1023 1779.09 21.8523C1779.22 21.5994 1779.29 21.2983 1779.29 20.9489C1779.29 20.5994 1779.22 20.294 1779.09 20.0327C1778.96 19.7713 1778.75 19.5696 1778.46 19.4276C1778.18 19.2827 1777.8 19.2102 1777.33 19.2102H1775.47V27H1774.41ZM1778.52 23.0795L1780.67 27H1779.44L1777.33 23.0795H1778.52ZM1783.59 27V18.2727H1788.86V19.2102H1784.64V22.1591H1788.58V23.0966H1784.64V26.0625H1788.92V27H1783.59Z" fill="white"/>
</g>
<defs>
<clipPath id="clip0_58_568">
<rect width="1728" height="46" fill="white"/>
</clipPath>
</defs>
</svg>
