<svg width="195" height="25" viewBox="0 0 195 25" fill="none" xmlns="http://www.w3.org/2000/svg">
<path d="M0 0.3327H7.32107L12.0443 10.2186H12.2333L16.9566 0.3327H24.2776L15.3979 17.0152V24.6673H8.87975V17.0152L0 0.3327Z" fill="black"/>
<path d="M47.8242 12.5C47.8242 15.2091 47.3007 17.4945 46.2537 19.356C45.2067 21.2096 43.7937 22.6157 42.0146 23.5741C40.2355 24.5247 38.2517 25 36.0633 25C33.8591 25 31.8674 24.5208 30.0883 23.5623C28.3171 22.5958 26.908 21.1858 25.861 19.3322C24.8219 17.4707 24.3023 15.1933 24.3023 12.5C24.3023 9.79087 24.8219 7.50951 25.861 5.65589C26.908 3.79436 28.3171 2.38831 30.0883 1.43774C31.8674 0.479246 33.8591 0 36.0633 0C38.2517 0 40.2355 0.479246 42.0146 1.43774C43.7937 2.38831 45.2067 3.79436 46.2537 5.65589C47.3007 7.50951 47.8242 9.79087 47.8242 12.5ZM41.0699 12.5C41.0699 11.0425 40.8771 9.81464 40.4913 8.81654C40.1135 7.81052 39.5506 7.05006 38.8028 6.53517C38.0628 6.01236 37.1496 5.75095 36.0633 5.75095C34.9769 5.75095 34.0598 6.01236 33.312 6.53517C32.572 7.05006 32.0091 7.81052 31.6234 8.81654C31.2455 9.81464 31.0566 11.0425 31.0566 12.5C31.0566 13.9575 31.2455 15.1893 31.6234 16.1953C32.0091 17.1934 32.572 17.9539 33.312 18.4767C34.0598 18.9916 34.9769 19.2491 36.0633 19.2491C37.1496 19.2491 38.0628 18.9916 38.8028 18.4767C39.5506 17.9539 40.1135 17.1934 40.4913 16.1953C40.8771 15.1893 41.0699 13.9575 41.0699 12.5Z" fill="black"/>
<path d="M64.8409 0.3327H71.4062V15.9221C71.4062 17.7757 70.9654 19.3798 70.0837 20.7343C69.2099 22.081 67.9897 23.1226 66.4232 23.8593C64.8566 24.5881 63.0382 24.9525 60.9678 24.9525C58.8817 24.9525 57.0553 24.5881 55.4888 23.8593C53.9222 23.1226 52.702 22.081 51.8282 20.7343C50.9623 19.3798 50.5293 17.7757 50.5293 15.9221V0.3327H57.0947V15.3517C57.0947 16.1042 57.26 16.7776 57.5906 17.3717C57.9213 17.9579 58.3779 18.4173 58.9604 18.75C59.5508 19.0827 60.2199 19.2491 60.9678 19.2491C61.7235 19.2491 62.3926 19.0827 62.9752 18.75C63.5577 18.4173 64.0143 17.9579 64.3449 17.3717C64.6755 16.7776 64.8409 16.1042 64.8409 15.3517V0.3327Z" fill="black"/>
<path d="M74.194 24.6673V0.3327H84.6324C86.4273 0.3327 87.9978 0.661439 89.3439 1.31892C90.69 1.97639 91.737 2.923 92.4849 4.15875C93.2327 5.39449 93.6067 6.87579 93.6067 8.60266C93.6067 10.3454 93.2209 11.8148 92.4495 13.0109C91.6859 14.2071 90.6113 15.1101 89.2258 15.7201C87.8482 16.33 86.2384 16.635 84.3963 16.635H78.1616V11.5019H83.0738C83.8452 11.5019 84.5026 11.4068 85.0457 11.2167C85.5968 11.0187 86.0179 10.7058 86.3092 10.278C86.6084 9.85029 86.7579 9.29183 86.7579 8.60266C86.7579 7.90558 86.6084 7.3392 86.3092 6.90352C86.0179 6.45992 85.5968 6.13514 85.0457 5.92918C84.5026 5.7153 83.8452 5.60836 83.0738 5.60836H80.7594V24.6673H74.194ZM88.3638 13.4981L94.4096 24.6673H87.2775L81.3734 13.4981H88.3638Z" fill="black"/>
<path d="M102.365 24.6673V0.3327H108.93V19.3441H118.707V24.6673H102.365Z" fill="black"/>
<path d="M143.514 12.5C143.514 15.2091 142.991 17.4945 141.944 19.356C140.897 21.2096 139.484 22.6157 137.705 23.5741C135.925 24.5247 133.942 25 131.753 25C129.549 25 127.557 24.5208 125.778 23.5623C124.007 22.5958 122.598 21.1858 121.551 19.3322C120.512 17.4707 119.992 15.1933 119.992 12.5C119.992 9.79087 120.512 7.50951 121.551 5.65589C122.598 3.79436 124.007 2.38831 125.778 1.43774C127.557 0.479246 129.549 0 131.753 0C133.942 0 135.925 0.479246 137.705 1.43774C139.484 2.38831 140.897 3.79436 141.944 5.65589C142.991 7.50951 143.514 9.79087 143.514 12.5ZM136.76 12.5C136.76 11.0425 136.567 9.81464 136.181 8.81654C135.803 7.81052 135.241 7.05006 134.493 6.53517C133.753 6.01236 132.84 5.75095 131.753 5.75095C130.667 5.75095 129.75 6.01236 129.002 6.53517C128.262 7.05006 127.699 7.81052 127.313 8.81654C126.936 9.81464 126.747 11.0425 126.747 12.5C126.747 13.9575 126.936 15.1893 127.313 16.1953C127.699 17.1934 128.262 17.9539 129.002 18.4767C129.75 18.9916 130.667 19.2491 131.753 19.2491C132.84 19.2491 133.753 18.9916 134.493 18.4767C135.241 17.9539 135.803 17.1934 136.181 16.1953C136.567 15.1893 136.76 13.9575 136.76 12.5Z" fill="black"/>
<path d="M161.924 8.36502C161.822 7.94518 161.66 7.57684 161.44 7.25998C161.22 6.9352 160.944 6.66191 160.614 6.44011C160.291 6.21039 159.913 6.04008 159.48 5.92918C159.055 5.81036 158.586 5.75095 158.075 5.75095C156.973 5.75095 156.032 6.01632 155.253 6.54705C154.481 7.07779 153.891 7.84221 153.481 8.8403C153.08 9.8384 152.879 11.0425 152.879 12.4525C152.879 13.8783 153.072 15.0982 153.458 16.1122C153.843 17.1261 154.418 17.9024 155.182 18.4411C155.945 18.9797 156.894 19.2491 158.027 19.2491C159.027 19.2491 159.858 19.1025 160.519 18.8094C161.188 18.5163 161.688 18.1004 162.019 17.5618C162.349 17.0231 162.515 16.3894 162.515 15.6606L163.648 15.7795H158.122V11.0741H168.844V14.4487C168.844 16.6667 168.375 18.5638 167.439 20.1402C166.51 21.7087 165.227 22.9127 163.589 23.7524C161.96 24.5841 160.09 25 157.98 25C155.627 25 153.56 24.497 151.781 23.491C150.002 22.485 148.612 21.0512 147.613 19.1896C146.621 17.3281 146.125 15.1141 146.125 12.5475C146.125 10.5355 146.428 8.75317 147.034 7.20057C147.648 5.64797 148.498 4.33698 149.585 3.26759C150.671 2.19027 151.927 1.37833 153.351 0.831748C154.776 0.277249 156.304 0 157.933 0C159.366 0 160.696 0.205957 161.924 0.617872C163.16 1.02186 164.25 1.60013 165.195 2.35266C166.148 3.09728 166.915 3.98051 167.498 5.00238C168.08 6.02424 168.434 7.14512 168.56 8.36502H161.924Z" fill="black"/>
<path d="M195 12.5C195 15.2091 194.477 17.4945 193.43 19.356C192.383 21.2096 190.969 22.6157 189.19 23.5741C187.411 24.5247 185.428 25 183.239 25C181.035 25 179.043 24.5208 177.264 23.5623C175.493 22.5958 174.084 21.1858 173.037 19.3322C171.998 17.4707 171.478 15.1933 171.478 12.5C171.478 9.79087 171.998 7.50951 173.037 5.65589C174.084 3.79436 175.493 2.38831 177.264 1.43774C179.043 0.479246 181.035 0 183.239 0C185.428 0 187.411 0.479246 189.19 1.43774C190.969 2.38831 192.383 3.79436 193.43 5.65589C194.477 7.50951 195 9.79087 195 12.5ZM188.246 12.5C188.246 11.0425 188.053 9.81464 187.667 8.81654C187.289 7.81052 186.726 7.05006 185.979 6.53517C185.239 6.01236 184.325 5.75095 183.239 5.75095C182.153 5.75095 181.236 6.01236 180.488 6.53517C179.748 7.05006 179.185 7.81052 178.799 8.81654C178.421 9.81464 178.232 11.0425 178.232 12.5C178.232 13.9575 178.421 15.1893 178.799 16.1953C179.185 17.1934 179.748 17.9539 180.488 18.4767C181.236 18.9916 182.153 19.2491 183.239 19.2491C184.325 19.2491 185.239 18.9916 185.979 18.4767C186.726 17.9539 187.289 17.1934 187.667 16.1953C188.053 15.1893 188.246 13.9575 188.246 12.5Z" fill="black"/>
</svg>
